<svg width="32" height="32" viewBox="0 0 40 40" fill="none" xmlns="http://www.w3.org/2000/svg">
  <rect width="40" height="40" rx="8" fill="white"/>
  <circle cx="20" cy="20" r="18" stroke="#c9a96e" stroke-width="2"/>
  <path d="M15 15C15 13.8954 15.8954 13 17 13H23C24.1046 13 25 13.8954 25 15V25C25 26.1046 24.1046 27 23 27H17C15.8954 27 15 26.1046 15 25V15Z" fill="#c9a96e"/>
  <circle cx="20" cy="20" r="3" fill="white"/>
  <path d="M12 8C12 6.89543 12.8954 6 14 6H26C27.1046 6 28 6.89543 28 8V10C28 11.1046 27.1046 12 26 12H14C12.8954 12 12 11.1046 12 10V8Z" fill="#c9a96e"/>
  <path d="M12 30C12 28.8954 12.8954 28 14 28H26C27.1046 28 28 28.8954 28 30V32C28 33.1046 27.1046 34 26 34H14C12.8954 34 12 33.1046 12 32V30Z" fill="#c9a96e"/>
</svg>
